<?xml version="1.0" encoding="UTF-8" standalone="no"?>
<svg
   xmlns:dc="http://purl.org/dc/elements/1.1/"
   xmlns:cc="http://creativecommons.org/ns#"
   xmlns:rdf="http://www.w3.org/1999/02/22-rdf-syntax-ns#"
   xmlns:svg="http://www.w3.org/2000/svg"
   xmlns="http://www.w3.org/2000/svg"
   xml:space="preserve"
   style="enable-background:new 0 0 170 170;"
   viewBox="0 0 170 170"
   y="0px"
   x="0px"
   id="Calque_1"
   version="1.1"><metadata
   id="metadata25"><rdf:RDF><cc:Work
       rdf:about=""><dc:format>image/svg+xml</dc:format><dc:type
         rdf:resource="http://purl.org/dc/dcmitype/StillImage" /></cc:Work></rdf:RDF></metadata><defs
   id="defs23" />
<style
   id="style2"
   type="text/css">
	.st0{fill:#FFD100;}
	.st1{fill:#F6E948;}
</style>
<g
   id="g10">
	<path
   id="path4"
   d="M137.8,15.66H29.96c-20.32,0-32.74,22.32-22.02,39.59l53.92,86.84c10.14,16.33,33.9,16.33,44.04,0l53.92-86.84   C170.54,37.98,158.13,15.66,137.8,15.66z M134.76,57.63c-8.92,0-16.15-7.23-16.15-16.15s7.23-16.15,16.15-16.15   s16.15,7.23,16.15,16.15S143.68,57.63,134.76,57.63z"
   class="st0" />
	<path
   id="path6"
   d="M142.37,15.66H44.21c-18.5,0-29.8,20.32-20.04,36.03l49.08,79.05c9.23,14.86,30.85,14.86,40.08,0l49.08-79.05   C172.17,35.98,160.87,15.66,142.37,15.66z M134.76,57.63c-8.92,0-16.15-7.23-16.15-16.15s7.23-16.15,16.15-16.15   s16.15,7.23,16.15,16.15S143.68,57.63,134.76,57.63z"
   class="st1" />
	<path
   id="path8"
   d="M134.76,25.19c-5.68,0-10.67,2.94-13.55,7.38c0.51-0.05,1.03-0.08,1.55-0.08c8.92,0,16.15,7.23,16.15,16.15   c0,3.23-0.96,6.24-2.6,8.76c8.19-0.78,14.6-7.67,14.6-16.07C150.91,32.42,143.68,25.19,134.76,25.19z"
   class="st0" />
</g>
<g
   id="g18">
	<g
   id="g16">
		<path
   id="path12"
   d="M54.75,56.5h5.94V45.8h7.87v10.7h7.11v5.87h-7.11v19.05c0,3.24,0.28,4.9,3.8,4.9c1.1,0,2.21,0,3.31-0.28v6.07    c-1.72,0.14-3.38,0.41-5.11,0.41c-8.21,0-9.73-3.18-9.87-9.11V62.37h-5.94V56.5z"
   class="st0" />
		<path
   id="path14"
   d="M81.54,42.9h7.87v18.22h0.14c2.14-3.45,6.63-5.59,10.63-5.59c11.25,0,16.7,8.56,16.7,18.98    c0,9.59-4.83,18.64-15.39,18.64c-4.83,0-10.01-1.17-12.35-5.87h-0.14v4.9h-7.45V42.9z M99.14,61.74    c-6.63,0-10.01,5.04-10.01,12.63c0,7.18,3.66,12.56,10.01,12.56c7.18,0,9.87-6.35,9.87-12.56    C109.01,67.89,105.63,61.74,99.14,61.74z"
   class="st0" />
	</g>
</g>
</svg>